<svg width="20" height="20" viewBox="0 0 20 20" fill="none" xmlns="http://www.w3.org/2000/svg">
<g clip-path="url(#clip0_21_31)">
<path d="M16.1616 14.1819C16.9932 14.1732 17.7203 13.6115 17.9336 12.806L19.9843 5.16935C20.0496 4.92118 19.9059 4.66865 19.6577 4.59899C19.6186 4.59028 19.5794 4.58157 19.5402 4.58157H4.11441L3.06513 0.706627C3.01288 0.506349 2.83002 0.362671 2.62103 0.362671H0V1.29005H2.25531L3.26976 5.07792C3.26541 5.10839 3.26541 5.13887 3.26976 5.16935L5.35962 12.8322C5.37268 12.8931 5.39445 12.9584 5.41622 13.0194L6.12155 15.5882C5.44234 15.9495 4.98083 16.6636 4.98083 17.4865C4.98083 18.6751 5.94304 19.6373 7.13165 19.6373C8.32025 19.6373 9.28246 18.6751 9.28246 17.4865C9.28246 17.1164 9.18668 16.7637 9.02123 16.4589C8.98204 16.3893 8.94286 16.3196 8.89497 16.25H14.3678C14.124 16.5983 13.9759 17.0249 13.9759 17.4865C13.9759 18.6751 14.9381 19.6373 16.1268 19.6373C17.3154 19.6373 18.2776 18.6751 18.2776 17.4865C18.2776 16.9248 18.0642 16.4154 17.7116 16.0323C17.3328 15.6012 16.7755 15.3269 16.1529 15.3226H7.04892L6.72238 14.1253C6.86171 14.1601 7.00538 14.1819 7.14906 14.1819H16.1616ZM16.1311 16.25C16.8147 16.25 17.3676 16.8029 17.3676 17.4865C17.3676 18.17 16.8147 18.723 16.1311 18.723C15.4475 18.723 14.8946 18.17 14.8946 17.4865C14.8946 16.8029 15.4475 16.25 16.1311 16.25ZM7.13165 16.25C7.81521 16.25 8.36379 16.8073 8.36379 17.4865C8.36379 18.17 7.81085 18.723 7.12729 18.723C6.44373 18.723 5.89515 18.17 5.89515 17.4865C5.89515 16.8029 6.44809 16.25 7.13165 16.25ZM6.30441 12.6667L5.26383 8.86143L4.33646 5.51766H18.9176L17.0324 12.5971C16.9279 13.002 16.5665 13.285 16.1485 13.2937H7.14035C6.76157 13.2719 6.43067 13.0281 6.30441 12.6667Z" fill="white"/>
</g>
<defs>
<clipPath id="clip0_21_31">
<rect width="20" height="20" fill="white"/>
</clipPath>
</defs>
</svg>
