<svg width="20" height="20" viewBox="0 0 20 20" fill="none" xmlns="http://www.w3.org/2000/svg">
<g clip-path="url(#clip0_21_20)">
<path d="M14.5861 0H5.41382C2.42859 0 0 2.42859 0 5.41382V14.5863C0 17.5714 2.42859 20 5.41382 20H14.5863C17.5714 20 20 17.5714 20 14.5863V5.41382C20 2.42859 17.5714 0 14.5861 0ZM18.8275 14.5863C18.8275 16.9248 16.9248 18.8275 14.5861 18.8275H5.41382C3.07511 18.8275 1.1725 16.9248 1.1725 14.5863V5.41382C1.1725 3.07511 3.07511 1.1725 5.41382 1.1725H14.5863C16.9248 1.1725 18.8275 3.07511 18.8275 5.41382V14.5863Z" fill="white"/>
<path d="M9.99997 4.53138C6.98454 4.53138 4.53137 6.98451 4.53137 9.99998C4.53137 13.0154 6.9845 15.4686 9.99997 15.4686C13.0154 15.4686 15.4686 13.0154 15.4686 9.99998C15.4686 6.98451 13.0154 4.53138 9.99997 4.53138ZM9.99997 14.2961C7.63122 14.2961 5.70387 12.3689 5.70387 9.99998C5.70387 7.63123 7.63122 5.70388 9.99997 5.70388C12.3689 5.70388 14.2961 7.63123 14.2961 9.99998C14.2961 12.3689 12.3689 14.2961 9.99997 14.2961ZM15.5993 2.58923C14.7082 2.58923 13.9834 3.31419 13.9834 4.20513C13.9834 5.09626 14.7082 5.82119 15.5993 5.82119C16.4905 5.82119 17.2154 5.09626 17.2154 4.20517C17.2154 3.31408 16.4904 2.58923 15.5993 2.58923ZM15.5993 4.64857C15.3549 4.64857 15.1559 4.44958 15.1559 4.20513C15.1559 3.96056 15.3549 3.76173 15.5993 3.76173C15.8439 3.76173 16.0429 3.96056 16.0429 4.20513C16.0429 4.44958 15.8439 4.64857 15.5993 4.64857Z" fill="white"/>
</g>
<defs>
<clipPath id="clip0_21_20">
<rect width="20" height="20" fill="white"/>
</clipPath>
</defs>
</svg>
