<svg width="20" height="21" viewBox="0 0 20 21" fill="none" xmlns="http://www.w3.org/2000/svg">
<g clip-path="url(#clip0_21_26)">
<path d="M1.08542 20.27H1.03923C0.738997 20.2474 0.531145 19.9986 0.55424 19.7273C0.854471 15.4082 5.01152 12.0389 9.99997 12.0389C14.9884 12.0389 19.1455 15.4082 19.4457 19.7047C19.4688 19.9986 19.2378 20.2248 18.9607 20.2474C18.6605 20.27 18.4295 20.0439 18.4064 19.7725C18.1293 15.9961 14.4341 13.0564 9.99997 13.0564C5.54269 13.0564 1.84754 16.0187 1.5935 19.7951C1.57041 20.0665 1.33946 20.27 1.08542 20.27ZM9.99997 10.9987C7.09004 10.9987 4.73438 8.69213 4.73438 5.8429C4.73438 2.99366 7.09004 0.687134 9.99997 0.687134C12.9099 0.687134 15.2656 2.99366 15.2656 5.8429C15.2656 8.69213 12.9099 10.9987 9.99997 10.9987ZM9.99997 1.72733C7.6905 1.72733 5.79673 3.5816 5.79673 5.8429C5.79673 8.1042 7.6905 9.95846 9.99997 9.95846C12.3094 9.95846 14.2032 8.1042 14.2032 5.8429C14.2032 3.5816 12.3094 1.72733 9.99997 1.72733Z" fill="white"/>
</g>
<defs>
<clipPath id="clip0_21_26">
<rect width="20" height="19.5828" fill="white" transform="translate(0 0.687134)"/>
</clipPath>
</defs>
</svg>
