<?xml version="1.0" encoding="utf-8"?> <!-- Generator: IcoMoon.io --> <!DOCTYPE svg PUBLIC "-//W3C//DTD SVG 1.1//EN" "http://www.w3.org/Graphics/SVG/1.1/DTD/svg11.dtd"> <svg fill="#ffffff" xmlns:xlink="http://www.w3.org/1999/xlink" xmlns="http://www.w3.org/2000/svg" viewBox="0 0 500 500" height="500" width="500.00000000000006"><path d="M 453.050,91.675c-7.4-6.4-47.65-36.875-55.175-43.35S 378.6,40, 370.3,40L 129.7,40 c-8.275,0-20.050,1.825-27.55,8.325 c-7.525,6.5-47.775,36.975-55.175,43.35S 33.4,107.7, 35.375,121.45c 1.975,13.75, 48.425,324.325, 48.425,324.325 C 86.4,453.6, 95.3,460, 103.6,460l 292.825,0 c 8.3,0, 17.2-6.425, 19.8-14.225c0,0, 46.425-310.575, 48.425-324.325 C 466.6,107.7, 460.45,98.075, 453.050,91.675z M 250,309.2c-81.2,0-98.575-114.925-102.175-138.6L 193.75,170.6 c 6.925,34.55, 22.65,93.6, 56.25,93.6 s 49.35-59.050, 56.275-93.6l 45.9,0 C 348.575,194.275, 331.2,309.2, 250,309.2z M 74.075,125l 55.15-57.5l 241.55,0 L 425.925,125L 74.075,125 z"></path></svg>